<?xml version="1.0" encoding="UTF-8" standalone="no"?>
<svg
   xmlns:dc="http://purl.org/dc/elements/1.1/"
   xmlns:cc="http://creativecommons.org/ns#"
   xmlns:rdf="http://www.w3.org/1999/02/22-rdf-syntax-ns#"
   xmlns:svg="http://www.w3.org/2000/svg"
   xmlns="http://www.w3.org/2000/svg"
   viewBox="0 0 841.88977 595.27557"
   id="svg2"
   height="595.27557"
   width="841.88977"
   version="1.1">
  <metadata
     id="metadata22">
    <rdf:RDF>
      <cc:Work
         rdf:about="">
        <dc:format>image/svg+xml</dc:format>
        <dc:type
           rdf:resource="http://purl.org/dc/dcmitype/StillImage" />
      </cc:Work>
    </rdf:RDF>
  </metadata>
  <defs
     id="defs20" />
  <g
     id="g4">
    <path
       id="path6"
       style="fill:#ffec00;fill-rule:evenodd"
       d="m 602.6343,67.7131 c 104.1374,0 188.5902,84.4528 188.5902,188.5902 0,104.1374 -84.4528,188.5903 -188.5902,188.5903 -104.1375,0 -188.5903,-84.4529 -188.5903,-188.5903 0,-104.1374 84.4528,-188.5902 188.5903,-188.5902 z" />
    <path
       id="path8"
       style="fill:#00509e;fill-rule:evenodd"
       d="m 493.4988,266.5275 21.4299,0 c 0.1221,3.4284 0.1931,5.7841 0.1931,7.0499 0,5.1326 -0.8085,9.2287 -2.4268,12.3232 -1.6693,3.2341 -4.8872,5.4852 -9.6336,6.7509 -5.1675,1.4053 -14.1334,2.1091 -26.8778,2.1091 -14.0461,0 -23.5041,-0.2292 -28.3739,-0.6677 -4.5359,-0.3874 -8.1038,-0.9854 -10.7062,-1.8114 -2.6187,-0.8259 -4.7813,-2.0219 -6.4868,-3.604 -2.3022,-2.1266 -3.761,-4.9395 -4.3765,-8.4377 -0.6864,-3.6738 -1.0377,-10.7586 -1.0377,-21.2356 0,-10.056 0.2641,-16.8417 0.7736,-20.3399 0.7562,-5.2559 2.7956,-9.0705 6.1355,-11.4437 2.5314,-1.7753 6.5915,-3.0597 12.1476,-3.8146 5.7655,-0.7562 16.1205,-1.125 31.0624,-1.125 8.8774,0 15.2234,0.1931 19.0031,0.5619 5.6957,0.5631 9.8442,1.6531 12.4641,3.305 3.2166,2.0219 5.2559,4.957 6.118,8.8077 0.6154,2.742 0.9319,5.9237 0.9319,9.5278 0,0.6328 -0.0175,1.987 -0.0536,4.0787 l -21.4113,0 c -0.071,-1.723 -0.1407,-2.8828 -0.2105,-3.5156 -0.2816,-2.093 -1.2308,-3.411 -2.8304,-3.9741 -2.4442,-0.8259 -9.1067,-1.2296 -19.9886,-1.2296 -7.4186,0 -12.5338,0.2106 -15.3468,0.6142 -3.4271,0.4933 -5.5549,2.3558 -6.3809,5.6259 -0.6503,2.6374 -0.9841,6.8917 -0.9841,12.7805 0,6.0296 0.3338,10.2129 0.9841,12.5164 0.826,2.9886 3.0759,4.7115 6.7858,5.2036 3.0235,0.3688 8.3318,0.5631 15.9261,0.5631 8.1922,0 13.8007,-0.1769 16.7894,-0.5108 2.8117,-0.3164 4.5882,-1.3354 5.3431,-3.0409 0.6329,-1.4414 0.968,-3.7971 1.0378,-7.0673 z m 29.0404,-43.1577 22.5026,0 0,70.3008 -22.5026,0 0,-70.3008 z m 27.4072,0 85.0844,0 0,17.9318 -31.2741,0 0,52.369 -22.5013,0 0,-52.369 -31.309,0 0,-17.9318 z m 87.2471,0 28.1796,0 22.9062,28.1809 21.9569,-28.1809 27.898,0 -38.4635,45.4262 0,24.8746 -22.15,0 0,-24.8746 -40.3272,-45.4262 z" />
    <path
       id="path10"
       style="fill:#ffffff;fill-rule:evenodd"
       d="m 93.8468,348.6525 c 0,0 272.5816,-60.3553 507.6317,-37.9653 242.558,23.1066 8.1509,11.2931 -72.4823,13.5396 -125.6506,3.5025 -242.2234,25.6465 -352.7349,54.8682 -92.207,24.3827 -121.495,-4.6626 -82.4145,-30.4425 z" />
    <path
       id="path12"
       style="fill:#75c5f0;fill-rule:evenodd"
       d="m 72.9176,341.6761 c 0,0 272.5816,-60.3553 507.6317,-37.9652 242.5581,23.1065 8.151,11.293 -72.4822,13.5395 C 382.4165,320.7529 265.8437,342.897 155.3322,372.1186 63.1251,396.5013 33.8371,367.456 72.9176,341.6761 Z" />
    <path
       id="path14"
       style="fill:#00509e;fill-rule:evenodd"
       d="m 50.6656,270.3956 20.7436,0 c -0.0349,3.4633 0.6677,5.6957 2.1091,6.6974 0.7561,0.4746 1.617,0.8085 2.585,0.9841 0.9667,0.1582 2.636,0.2816 5.0441,0.3526 1.196,0.0349 5.1339,0.0697 11.7963,0.1046 9.1241,-0.0349 14.415,-0.0872 15.8564,-0.1582 2.707,-0.2105 4.501,-0.5618 5.3444,-1.0714 1.2133,-0.7562 1.8113,-2.4442 1.8113,-5.0641 0,-1.7752 -0.37,-3.0235 -1.1262,-3.7435 -1.0365,-1.0029 -3.4981,-1.5299 -7.365,-1.5996 -2.6897,0 -8.2807,-0.2118 -16.7882,-0.6154 -8.7902,-0.4224 -14.4859,-0.6678 -17.1046,-0.7214 -6.7857,-0.2105 -11.5857,-1.0016 -14.3626,-2.3732 -3.5692,-1.7578 -5.9075,-4.7464 -6.9975,-8.9646 -0.6142,-2.3383 -0.9306,-5.398 -0.9306,-9.1764 0,-7.9643 1.5111,-13.5716 4.5346,-16.8418 2.2686,-2.4791 5.6957,-4.0961 10.3014,-4.8872 4.1497,-0.6852 14.0462,-1.0365 29.6571,-1.0365 10.178,0 17.3512,0.2978 21.5345,0.8783 5.5201,0.7911 9.5103,2.1627 11.9546,4.1136 3.2863,2.7245 4.9395,7.5768 4.9395,14.5906 0,0.7562 -0.0174,1.9521 -0.0523,3.604 l -20.7622,0 c -0.0698,-1.6868 -0.1931,-2.8478 -0.3688,-3.5156 -0.4746,-1.916 -2.0568,-3.006 -4.729,-3.2353 -2.3732,-0.2105 -8.1387,-0.3164 -17.2977,-0.3164 -9.0717,0 -14.4336,0.2641 -16.1204,0.7736 -1.8811,0.6155 -2.8304,2.215 -2.8304,4.7826 0,2.4779 1.0016,3.9902 2.9886,4.5346 1.6868,0.4572 9.2462,0.8796 22.7119,1.3019 12.1825,0.3339 19.9537,0.7724 23.3285,1.2831 3.3923,0.5096 6.0994,1.2832 8.1038,2.3197 2.0045,1.0203 3.6041,2.4791 4.8175,4.3777 1.8101,2.7781 2.7245,7.2604 2.7245,13.4482 0,6.8916 -0.897,11.9719 -2.6722,15.1886 -1.7927,3.1991 -4.7116,5.3792 -8.7541,6.5391 -3.9915,1.1785 -14.9606,1.759 -32.9099,1.759 -10.9167,0 -18.7913,-0.299 -23.6437,-0.8795 -5.9062,-0.6852 -10.1431,-2.0219 -12.7094,-4.0077 -2.7956,-2.1278 -4.43,-5.1339 -4.9582,-9.0182 -0.2629,-1.8986 -0.4037,-4.131 -0.4037,-6.6986 l 0,-3.7087 z m 92.7497,-26.6335 18.6519,0 0,49.9085 -18.6519,0 0,-49.9085 z m 0,-20.3923 18.6519,0 0,14.0114 -18.6519,0 0,-14.0114 z m 27.0896,20.3923 17.5618,0 0,7.4722 0.9318,0 c 2.6897,-5.8365 9.4219,-8.7554 20.2514,-8.7554 7.6815,0 13.5716,1.4775 17.6142,4.43 1.8985,1.3716 3.5691,3.3761 5.0454,6.0296 1.0016,-2.4779 2.3209,-4.3939 3.9728,-5.7655 1.9509,-1.6519 4.3066,-2.8479 7.0499,-3.5866 2.7419,-0.7375 6.2575,-1.1075 10.5119,-1.1075 6.7509,0 12.0417,0.9318 15.8563,2.7781 2.0568,1.0365 3.8856,2.4604 5.4503,4.2718 1.5821,1.8275 2.6896,3.7622 3.305,5.819 0.9319,3.0584 1.3891,8.0515 1.3891,14.9943 l 0,23.3285 -18.6519,0 0,-23.3285 c 0,-3.8495 -0.1756,-6.5566 -0.5107,-8.1387 -0.7911,-3.7797 -4.8337,-5.6609 -12.0941,-5.6609 -5.4677,0 -9.159,1.0552 -11.075,3.1469 -1.4065,1.5124 -2.2673,3.8856 -2.5663,7.1545 -0.1408,1.4775 -0.2118,3.5517 -0.2118,6.2239 l 0,20.6028 -18.6518,0 0,-23.3285 c 0,-3.8146 -0.1221,-6.3809 -0.3688,-7.7164 -0.4746,-2.5489 -1.9509,-4.2544 -4.4125,-5.099 -1.9335,-0.6503 -4.43,-0.9842 -7.5233,-0.9842 -5.6085,0 -9.4231,1.0203 -11.445,3.041 -1.3704,1.3716 -2.2325,3.7099 -2.5663,6.9975 -0.1408,1.4414 -0.2106,3.6028 -0.2106,6.4868 l 0,20.6028 -18.6518,0 0,-49.9085 z m 116.9029,70.6694 0,-70.6694 17.5618,0 0,6.7508 1.0365,0 c 1.1611,-2.2673 2.6024,-3.903 4.3253,-4.8872 2.3023,-1.3354 4.8686,-2.1801 7.7351,-2.5314 3.2166,-0.4036 6.7671,-0.6154 10.6527,-0.6154 7.9281,0 14.0462,0.7213 18.3354,2.1627 4.658,1.5821 7.7176,4.5533 9.159,8.9123 1.0365,3.1468 1.5473,8.2982 1.5473,15.4527 0,6.2052 -0.4049,10.7237 -1.2309,13.5366 -1.5472,5.3619 -4.8697,8.86 -9.95,10.512 -3.8321,1.2657 -10.0199,1.8985 -18.5285,1.8985 -5.5911,0 -9.7047,-0.3687 -12.3059,-1.1249 -3.8494,-1.0726 -6.7858,-3.2702 -8.8077,-6.5927 l -0.8782,0 0,27.1954 -18.6519,0 z m 35.4923,-57.889 c -7.5942,0 -12.2884,0.7911 -14.1159,2.3732 -1.8114,1.5647 -2.7245,5.0803 -2.7245,10.4958 0,2.9873 0.3164,5.221 0.9318,6.6973 0.8608,2.0568 2.7943,3.3922 5.8178,4.0077 2.4966,0.5107 5.8016,0.7736 9.8803,0.7736 6.8555,0 11.3204,-0.6852 13.3772,-2.0568 1.3367,-0.8957 2.215,-2.3196 2.6373,-4.2718 0.2641,-1.4065 0.4049,-3.6738 0.4049,-6.8032 0,-2.9537 -0.2641,-5.0803 -0.7736,-6.3809 -0.9319,-2.1975 -3.112,-3.6215 -6.5404,-4.2718 -1.9509,-0.37 -4.9221,-0.5631 -8.8949,-0.5631 z m 41.9094,-33.1727 18.6518,0 0,70.3008 -18.6518,0 0,-70.3008 z m 27.0895,20.3923 18.6519,0 0,49.9085 -18.6519,0 0,-49.9085 z m 0,-20.3923 18.6519,0 0,14.0114 -18.6519,0 0,-14.0114 z" />
  </g>
  <path
     id="path16"
     style="fill:#008bd0;fill-rule:evenodd"
     d="m 60.2155,487.2849 48.0039,0 0,10.1166 -17.6445,0 0,29.5461 -12.6953,0 0,-29.5461 -17.6641,0 0,-10.1166 z m 51.992,39.6627 0,-39.6627 29.209,0 c 6.893,0.0199 10.9593,0.0893 12.1992,0.1985 1.4182,0.1389 2.6977,0.5553 3.8582,1.2396 1.1503,0.6845 2.043,1.5672 2.6878,2.6282 0.6546,1.1407 1.0514,2.331 1.19,3.5708 0.1687,1.4579 0.258,3.2134 0.258,5.2665 0,3.2332 -0.2183,5.4848 -0.6645,6.7641 -0.6843,1.8944 -1.9638,3.2136 -3.8384,3.9475 -0.6446,0.2579 -1.5967,0.4759 -2.8763,0.6744 2.539,0.1885 4.354,0.9224 5.4649,2.1821 0.4763,0.5553 0.8232,1.1999 1.0316,1.9238 0.1984,0.7342 0.3373,1.7955 0.4167,3.1839 0.0198,0.724 0.0297,2.1821 0.0297,4.3937 l 0,3.6896 -11.9117,0 0,-2.1226 c 0,-2.3604 -0.1092,-4.0564 -0.3175,-5.0879 -0.3073,-1.4678 -1.101,-2.3406 -2.3604,-2.6184 -0.8331,-0.1686 -2.5787,-0.2579 -5.2566,-0.2579 l -17.0294,0 0,10.0868 -12.0903,0 z m 12.0903,-19.995 16.9996,0 c 2.539,-0.0397 4.0366,-0.0794 4.5029,-0.1191 1.7059,-0.0893 2.7771,-0.6148 3.2233,-1.567 0.3075,-0.6545 0.4663,-1.7654 0.4663,-3.3423 0,-1.349 -0.1389,-2.3607 -0.4068,-3.0152 -0.4068,-0.972 -1.3884,-1.5174 -2.9359,-1.6265 -0.5354,-0.0397 -2.1619,-0.0695 -4.8795,-0.0893 l -16.9699,0 0,9.7594 z m 85.7234,19.995 -3.4019,-6.7147 -26.2335,0 -3.4019,6.7147 -13.8061,0 21.0365,-39.6627 18.775,0 20.7487,39.6627 -13.7168,0 z m -7.6369,-15.4029 -7.647,-15.016 -2.41,0 -7.647,15.016 17.704,0 z m 14.3326,-24.2598 13.2803,0 14.4706,29.6949 2.2615,0 14.3316,-29.6949 13.1911,0 -19.3502,39.6627 -18.5768,0 -19.6081,-39.6627 z m 60.7396,0 43.9373,0 0,9.3232 -32.0255,0 0,5.7325 30.399,0 0,8.7182 -30.399,0 0,6.3576 32.2537,0 0,9.5312 -44.1655,0 0,-39.6627 z m 49.1454,0 12.6953,0 0,29.5461 28.2172,0 0,10.1166 -40.9125,0 0,-39.6627 z m 108.1684,39.6627 -3.4019,-6.7147 -26.2335,0 -3.4018,6.7147 -13.8062,0 21.0365,-39.6627 18.775,0 20.7487,39.6627 -13.7168,0 z m -7.6368,-15.4029 -7.647,-15.016 -2.4101,0 -7.647,15.016 17.7041,0 z m 47.8261,-7.0914 27.6321,0 c 0.0397,0.8727 0.0593,1.438 0.0593,1.686 0,5.197 -0.1485,9.2041 -0.4363,12.0308 -0.4663,4.5723 -3.0648,7.3494 -7.7856,8.3115 -2.4401,0.4858 -5.118,0.7835 -8.024,0.8728 -3.0745,0.1187 -6.7343,0.1783 -10.9494,0.1783 -7.4982,0 -12.854,-0.2676 -16.0776,-0.8133 -4.4532,-0.7339 -7.2104,-2.787 -8.2814,-6.1591 -0.5159,-1.6464 -0.8232,-3.5408 -0.8926,-5.6733 -0.0992,-2.6679 -0.1488,-5.5145 -0.1488,-8.5393 0,-5.1177 0.2381,-8.7081 0.7239,-10.7811 0.7042,-2.8862 1.9044,-4.9195 3.6102,-6.1095 0.8828,-0.6349 2.0036,-1.1208 3.3523,-1.468 1.349,-0.3371 3.2533,-0.6149 5.7129,-0.8232 3.4614,-0.3076 8.1528,-0.466 14.0639,-0.466 7.5875,0 12.9631,0.2973 16.1268,0.9025 3.1938,0.595 5.4451,1.6662 6.7346,3.1935 1.1506,1.3788 1.8448,3.5507 2.0928,6.5163 0.0595,0.7934 0.0893,2.0135 0.0893,3.6598 l -12.0903,0 c -0.01,-1.091 -0.0695,-1.8249 -0.1687,-2.2118 -0.2679,-0.9919 -1.1307,-1.577 -2.5886,-1.7754 -1.9142,-0.2477 -5.6931,-0.3767 -11.3264,-0.3767 -5.0187,0 -8.5,0.1684 -10.434,0.4958 -1.8448,0.3274 -2.9557,1.3391 -3.3424,3.0251 -0.3075,1.2793 -0.4663,3.5507 -0.4663,6.8236 0,3.759 0.1687,6.3277 0.4961,7.7065 0.4263,1.8448 1.7456,2.8661 3.9472,3.0844 1.0911,0.0893 4.3643,0.1786 9.8192,0.2579 5.9707,-0.0396 9.819,-0.1587 11.5447,-0.3571 1.567,-0.2478 2.4695,-0.9323 2.6977,-2.0628 0.1389,-0.6945 0.2084,-1.7555 0.2084,-3.1938 l -15.899,0 0,-7.9344 z m 33.6532,-17.1684 43.9373,0 0,9.3232 -32.0255,0 0,5.7325 30.399,0 0,8.7182 -30.399,0 0,6.3576 32.2537,0 0,9.5312 -44.1655,0 0,-39.6627 z m 49.1454,0 21.185,0 20.7785,29.5759 1.2498,0 -0.2877,-29.5759 12.2888,0 0,39.6627 -21.0067,0 -20.8679,-29.6056 -1.309,0 0.2577,29.6056 -12.2885,0 0,-39.6627 z m 99.6783,24.3491 12.0904,0 c 0.0694,1.9341 0.1091,3.2629 0.1091,3.9773 0,2.8958 -0.4564,5.2069 -1.3689,6.9525 -0.9422,1.825 -2.7572,3.0943 -5.4351,3.8086 -2.916,0.7935 -7.9741,1.19 -15.1648,1.19 -7.9245,0 -13.2605,-0.129 -16.0078,-0.3767 -2.5588,-0.2183 -4.5723,-0.5556 -6.0403,-1.0216 -1.4777,-0.4663 -2.6978,-1.1407 -3.6599,-2.0333 -1.2991,-1.2002 -2.1223,-2.787 -2.4695,-4.7608 -0.3866,-2.0727 -0.5851,-6.0698 -0.5851,-11.9809 0,-5.6733 0.1488,-9.5017 0.4363,-11.4755 0.4266,-2.9653 1.5772,-5.1177 3.4614,-6.4565 1.4283,-1.0017 3.7193,-1.726 6.8536,-2.1523 3.253,-0.4266 9.0949,-0.6347 17.5252,-0.6347 5.0088,0 8.5892,0.1091 10.7217,0.3172 3.2134,0.3175 5.554,0.9323 7.0319,1.8646 1.8151,1.1407 2.9654,2.797 3.4515,4.9692 0.3472,1.5471 0.5255,3.3423 0.5255,5.3756 0,0.3569 -0.01,1.1208 -0.0297,2.3009 l -12.0801,0 c -0.0397,-0.972 -0.0794,-1.6265 -0.1191,-1.9837 -0.1587,-1.1801 -0.6942,-1.9239 -1.5968,-2.2414 -1.3787,-0.4663 -5.1377,-0.6942 -11.277,-0.6942 -4.1854,0 -7.0716,0.1191 -8.6584,0.347 -1.9341,0.2778 -3.1343,1.3292 -3.6003,3.1739 -0.3671,1.4877 -0.5556,3.8878 -0.5556,7.2105 0,3.4019 0.1885,5.7623 0.5556,7.0617 0.466,1.686 1.7356,2.658 3.8284,2.9358 1.7059,0.2081 4.701,0.3172 8.9859,0.3172 4.6216,0 7.7856,-0.0992 9.4717,-0.2874 1.5868,-0.1786 2.5886,-0.754 3.0152,-1.7158 0.3568,-0.8135 0.5454,-2.1424 0.585,-3.9872 z m 13.6086,-24.3491 15.899,0 12.9231,15.8987 12.388,-15.8987 15.7399,0 -21.7009,25.6286 0,14.0341 -12.4968,0 0,-14.0341 -22.7523,-25.6286 z" />
</svg>
